<svg width="153" height="153" viewBox="0 0 153 153" fill="none" xmlns="http://www.w3.org/2000/svg">
<path d="M48.0775 0L17.8386 48.5502L40.7924 64.0379L68.6231 62.8496L69.2289 35.7928L48.0775 0Z" fill="#9BFCFF"/>
<path d="M68.6231 62.8496L17.8386 48.5502L45.0285 148.841L53.9758 152.712H76.8817L80.5517 95.0612L68.6231 62.8496Z" fill="#76E2F8"/>
<path d="M85.8909 43.1351L68.623 62.8496L76.8817 152.712L100.403 134.748L108.465 38.0072L85.8909 43.1351Z" fill="#28C7F7"/>
<path d="M68.623 62.8496L108.465 38.0072L48.0774 0L68.623 62.8496Z" fill="#76E2F8"/>
<path d="M53.9759 91.1881L33.889 95.0787L31.6058 116.97L22.6584 132.168L31.6058 152.712H53.9759V91.1881Z" fill="#28C7F7"/>
<path d="M0 103.041L19.6304 152.712H31.6057V116.97L17.8386 101.955L0 103.041Z" fill="#76E2F8"/>
<path d="M0 103.041L31.6057 116.97L53.9758 91.1881L11.0975 69.7484L0 103.041Z" fill="#9BFCFF"/>
<path d="M153 113.702L135.468 101.088L117.938 106.37L97.6445 129.745L95.7336 152.712H114.587L153 113.702Z" fill="#28C7F7"/>
<path d="M117.938 106.37L153 113.702V52.4291L125.141 81.5217L117.938 106.37Z" fill="#76E2F8"/>
<path d="M153 52.4291L109.348 63.3434L105.171 87.2426L117.938 106.37L153 52.4291Z" fill="#9BFCFF"/>
<path d="M109.348 63.3434L76.8816 152.712H95.7334L117.938 106.37L109.348 63.3434Z" fill="#76E2F8"/>
</svg>
