<svg width="153" height="153" viewBox="0 0 153 153" fill="none" xmlns="http://www.w3.org/2000/svg">
<path d="M0 63.0527L76.5 153L67.8083 102.254L45.123 63.0527L28.6875 54.0879L0 63.0527Z" fill="#FF9AC9"/>
<path d="M107.877 63.0527L85.8967 100.239L76.5 153L153 63.0527L130.289 54.0879L107.877 63.0527Z" fill="#FF7CB9"/>
<path d="M107.877 63.0527L76.5 153L45.123 63.0527L76.5 54.0879L107.877 63.0527Z" fill="#FF7CB9"/>
<path d="M107.877 63.0527L76.5 153V54.0879L107.877 63.0527Z" fill="#FF5CA8"/>
<path d="M153 63.0527H107.877V36.1582L125.807 27.1934L153 63.0527Z" fill="#FF3997"/>
<path d="M45.123 63.0527H0L27.1934 27.1934L45.123 36.1582V63.0527Z" fill="#FF5CA8"/>
<path d="M76.5 27.1934L72.0176 54.0879L45.123 63.0527L27.1934 27.1934H76.5Z" fill="#FF7CB9"/>
<path d="M125.807 27.1934L107.877 63.0527L80.9824 54.0879L76.5 27.1934H125.807Z" fill="#FF5CA8"/>
<path d="M107.877 63.0527H45.123L76.5 27.1934L107.877 63.0527Z" fill="#FF9AC9"/>
<path d="M107.877 63.0527H76.5V27.1934L107.877 63.0527Z" fill="#FF7CB9"/>
</svg>
