<svg width="153" height="153" viewBox="0 0 153 153" fill="none" xmlns="http://www.w3.org/2000/svg">
<path d="M76.4603 153L44.5674 126.526L31.6758 35.8827L76.4603 0L121.245 35.8827L108.353 126.526L76.4603 153Z" fill="#C4E945"/>
<path d="M76.4602 153V0L121.245 35.8827L108.353 126.526L76.4602 153Z" fill="#9EDB3D"/>
<path d="M76.4602 153L63.4495 126.526L58.1897 35.8827L76.4602 0L94.7308 35.8827L89.4709 126.526L76.4602 153Z" fill="#9EDB3D"/>
<path d="M76.4602 153V0L94.7307 35.8827L89.4709 126.526L76.4602 153Z" fill="#C4E945"/>
<path d="M121.245 35.8827L76.4603 0L31.6758 35.8827L58.7606 45.5736H94.1869L121.245 35.8827Z" fill="#9EDB3D"/>
<path d="M44.6724 126.613L76.4602 153L108.248 126.613L89.8538 120.289L63.0748 120.081L44.6724 126.613Z" fill="#9EDB3D"/>
<path d="M121.245 35.8827L76.4602 0V45.5736H94.1868L121.245 35.8827Z" fill="#69BA30"/>
<path d="M76.4602 153L108.248 126.613L89.8538 120.289L76.4602 120.174V153Z" fill="#69BA30"/>
<path d="M94.1868 45.5736L76.4602 0L58.7605 45.5736H94.1868Z" fill="#C4E945"/>
<path d="M63.075 120.08L76.4604 153L89.8352 120.276L63.075 120.08Z" fill="#C4E945"/>
<path d="M94.1868 45.5736L76.4602 0V45.5736H94.1868Z" fill="#9EDB3D"/>
<path d="M76.4602 120.178V153L89.8538 120.289L76.4602 120.178Z" fill="#9EDB3D"/>
</svg>
