<svg width="153" height="153" viewBox="0 0 153 153" fill="none" xmlns="http://www.w3.org/2000/svg">
<path d="M103.165 53.5684L123.336 49.9802L134.06 38.7193C133.716 38.0049 133.225 37.3664 132.546 36.9123L78.7566 0.755241C78.0037 0.252136 77.1376 0 76.2703 0L71.7878 27.1945L76.2703 39.2235L85.6086 49.6066L103.165 53.5684Z" fill="#FF0059"/>
<path d="M49.377 53.5684L37.0503 41.0153L18.4821 38.7193C18.1961 39.3157 18 39.9613 18 40.6418V112.359C18 113.041 18.1961 113.687 18.4821 114.283L39.2915 111.612L49.377 99.4339L55.3535 75.007L49.377 53.5684Z" fill="#FF0059"/>
<path d="M103.165 99.4339L87.4763 102.275L76.2703 113.778L71.7878 132.456L76.2703 153C77.1376 153 78.0037 152.75 78.7566 152.247L132.546 116.089C133.225 115.636 133.716 114.997 134.06 114.283L121.094 101.902L103.165 99.4339Z" fill="#FF0059"/>
<path d="M76.4989 39.2235V0C75.6328 0 74.7655 0.252136 74.0137 0.755241L20.2247 36.9123C19.5453 37.3664 19.0539 38.0049 18.7107 38.7193L49.6056 53.5684L76.4989 39.2235Z" fill="#FF5E95"/>
<path d="M103.393 99.4338L134.288 114.283C134.574 113.687 134.77 113.041 134.77 112.359V40.6417C134.77 39.9612 134.574 39.3157 134.288 38.7192L103.393 53.5684V99.4338Z" fill="#E50048"/>
<path d="M49.6056 99.4337L18.7107 114.283C19.0539 114.997 19.5453 115.636 20.2247 116.09L74.0137 152.247C74.7666 152.75 75.6328 153 76.4989 153V113.777L49.6056 99.4337Z" fill="#FF5E95"/>
<path d="M103.393 53.5508V99.4501L76.4988 113.794L49.6055 99.4501V53.5508L76.4988 39.2071L103.393 53.5508Z" fill="#FFA2C3"/>
<path d="M103.393 53.5508V99.4501L76.4988 113.794V39.2071L103.393 53.5508Z" fill="#FF5E95"/>
</svg>
