<svg width="153" height="153" viewBox="0 0 153 153" fill="none" xmlns="http://www.w3.org/2000/svg">
<path d="M76.4999 0L10.2488 38.25V114.75L76.4999 153L142.751 114.75V38.25L76.4999 0Z" fill="#82D2FF"/>
<path d="M76.4999 76.5V0L10.2488 38.25L76.4999 76.5Z" fill="#08B7FC"/>
<path d="M10.2488 38.25V114.75L76.4999 76.5L10.2488 38.25Z" fill="#006DFF"/>
<path d="M142.751 38.25L76.5 76.5L142.751 114.75V38.25Z" fill="#08B7FC"/>
<path d="M76.4999 76.5L10.2488 114.75L76.4999 153V76.5Z" fill="#0050C0"/>
<path d="M76.5 153L142.751 114.75L76.5 76.5V153Z" fill="#006DFF"/>
<path d="M113.89 98.0868V54.9133L76.5 33.3262L39.1104 54.9133V98.0868L76.5 119.674L113.89 98.0868Z" fill="#82D2FF"/>
<path d="M113.89 98.0868V54.9133L76.5 33.3262V119.674L113.89 98.0868Z" fill="#55CBFF"/>
</svg>
